# AST/ASF file generated using VICON BodyLanguage
# -----------------------------------------------
:version 1.10
:name VICON
:units
  mass 1.0
  length 0.45
  angle deg
:documentation
   .ast/.asf automatically generated from VICON data using
   VICON BodyBuilder and BodyLanguage model FoxedUp or BRILLIANT.MOD
:root
   order TX TY TZ RX RY RZ
   axis XYZ
   position 0 0 0  
   orientation 0 0 0 
:bonedata
  begin
     id 1 
     name lhipjoint
     direction 0.630082 -0.636569 0.44472 
     length 2.82754 
     axis 0 0 0  XYZ
  end
  begin
     id 2 
     name lfemur
     direction 0.34202 -0.939693 0  
     length 7.26371  
     axis 0 0 20  XYZ
    dof rx ry rz
    limits (-160.0 20.0)
           (-70.0 70.0)
           (-60.0 70.0)
  end
  begin
     id 3 
     name ltibia
     direction 0.34202 -0.939693 0   
     length 7.88616   
     axis 0 0 20   XYZ
    dof rx
    limits (-10.0 170.0)
  end
  begin
     id 4 
     name lfoot
     direction 0.0603448 -0.165796 0.984312   
     length 1.77861   
     axis -90 7.62852e-016 20   XYZ
    dof rx rz
    limits (-45.0 90.0)
           (-70.0 20.0)
  end
  begin
     id 5 
     name ltoes
     direction 1.53577e-011 -4.21876e-011 1   
     length 0.902235   
     axis -90 7.62852e-016 20   XYZ
    dof rx
    limits (-90.0 20.0)
  end
  begin
     id 6 
     name rhipjoint
     direction -0.656778 -0.61817 0.431866   
     length 2.9117  
     axis 0 0 0  XYZ 
  end
  begin
     id 7 
     name rfemur
     direction -0.34202 -0.939693 0   
     length 6.81603   
     axis 0 0 -20   XYZ
    dof rx ry rz
    limits (-160.0 20.0)
           (-70.0 70.0)
           (-70.0 60.0)
  end
  begin
     id 8 
     name rtibia
     direction -0.34202 -0.939693 0   
     length 8.05997   
     axis 0 0 -20   XYZ
    dof rx
    limits (-10.0 170.0)
 end
 begin
     id 9 
     name rfoot
     direction -0.0862404 -0.236944 0.967688   
     length 1.84899  
     axis -90 -7.62852e-016 -20   XYZ
    dof rx rz
    limits (-45.0 90.0)
           (-20.0 70.0)
  end
  begin
     id 10 
     name rtoes
     direction -1.53561e-011 -4.21798e-011 1   
     length 0.931579   
     axis -90 -7.62852e-016 -20   XYZ
    dof rx
    limits (-90.0 20.0)
  end
  begin
     id 11 
     name lowerback
     direction -0.0110203 0.991769 -0.127564   
     length 2.05686   
     axis 0 0 0   XYZ
    dof rx ry rz
    limits (-20.0 45.0)
           (-30.0 30.0)
           (-30.0 30.0)
  end
  begin
     id 12 
     name upperback
     direction 0.0109719 0.99993 -0.00432479   
     length 2.06234   
     axis 0 0 0   XYZ
    dof rx ry rz
    limits (-20.0 45.0)
           (-30.0 30.0)
           (-30.0 30.0)
  end
  begin
     id 13 
     name thorax
     direction 0.0173308 0.998351 0.0547306   
     length 2.09856   
     axis 0 0 0   XYZ
    dof rx ry rz
    limits (-20.0 45.0)
           (-30.0 30.0)
           (-30.0 30.0)
  end
  begin
     id 14 
     name lowerneck
     direction -0.0311736 0.989033 0.144366   
     length 1.98151   
     axis 0 0 0   XYZ
    dof rx ry rz
    limits (-20.0 45.0)
           (-30.0 30.0)
           (-30.0 30.0)
  end
  begin
     id 15 
     name upperneck
     direction 0.0421057 0.975772 -0.214698   
     length 2.01457   
     axis 0 0 0   XYZ
    dof rx ry rz
    limits (-20.0 45.0)
           (-30.0 30.0)
           (-30.0 30.0)
  end
  begin
     id 16
     name head
     direction 0.0136911 0.995958 -0.0887718  
     length 2.03562  
     axis 0 0 0   XYZ
    dof rx ry rz
    limits (-20.0 45.0)
           (-30.0 30.0)
           (-30.0 30.0)
  end
  begin
     id 17 
     name lclavicle
     direction 0.915335 0.396201 0.0720134  
     length 4.16217  
     axis 0 0 0   XYZ
    dof ry rz
    limits (-20.0 10.0)
           (0.0 20.0)
  end
  begin
     id 18 
     name lhumerus
     direction 1 -4.48965e-011 6.383e-018   
     length 4.93042   
     axis -180 -30 -90   XYZ
    dof rx ry rz
    limits (-60.0 90.0)
           (-90.0 90.0)
           (-90.0 90.0)
  end
  begin
     id 19
     name lradius
     direction 1 -4.48972e-011 8.8689e-027   
     length 3.68177   
     axis -180 -30 -90   XYZ
    dof rx
    limits (-10.0 170.0)
  end
  begin
     id 20
     name lwrist
     direction 1 -4.48953e-011 1.17971e-026   
     length 1.84089   
     axis -7.69454e-015 90 90   XYZ
    dof ry
    limits (-180.0 0.0)
 end
  begin
     id 21 
     name lhand
     direction 1 -4.49027e-011 2.35802e-026   
     length 0.721479   
     axis -1.50533e-014 90 90   XYZ
    dof rx rz
    limits (-90.0 90.0)
           (-45.0 45.0)
  end
  begin
     id 22 
     name lfingers
     direction 1 -4.48915e-011 4.72027e-026   
     length 0.581675   
     axis -3.01059e-014 90 90   XYZ
    dof rx
    limits (0.0 90.0)
  end
  begin
     id 23
     name lthumb
     direction 0.707107 -6.34948e-011 0.707107   
     length 0.835172   
     axis -90 45 -5.12164e-014   XYZ
    dof rx rz
    limits (-45.0 45.0)
           (-45.0 45.0)
  end
  begin
     id 24 
     name rclavicle
     direction -0.882781 0.469197 0.0234974   
     length 3.95647  
     axis 0 0 0   XYZ 
    dof ry rz
    limits (-10.0 20.0)
           (-20.0 0.0)
  end
  begin
     id 25 
     name rhumerus
     direction -1 -4.48965e-011 -1.54906e-018  
     length 5.07905   
     axis -180 30 90   XYZ
    dof rx ry rz
    limits (-90.0 60.0)
           (-90.0 90.0)
           (-90.0 90.0)
  end
  begin
     id 26 
     name rradius
     direction -1 -4.48972e-011 5.47489e-027   
     length 3.54394   
     axis -180 30 90   XYZ
    dof rx
    limits (-10.0 170.0)
  end
  begin
     id 27 
     name rwrist
     direction -1 -4.48955e-011 1.17969e-026   
     length 1.77197   
     axis -7.69454e-015 -90 -90   XYZ
    dof ry
    limits (-180.0 0.0)
  end
  begin
     id 28
     name rhand
     direction -1 -4.48982e-011 2.35888e-026   
     length 0.681156   
     axis -1.50533e-014 -90 -90   XYZ
    dof rx rz
    limits (-90.0 90.0)
           (-45.0 45.0)
  end
  begin
     id 29
     name rfingers
     direction -1 -4.48955e-011 4.71877e-026   
     length 0.549165   
     axis -3.01059e-014 -90 -90   XYZ
    dof rx
    limits (0.0 90.0)
  end
  begin
     id 30
     name rthumb
     direction -0.707107 -6.3491e-011 0.707107   
     length 0.788495   
     axis -90 -45 5.12164e-014   XYZ
    dof rx rz
    limits (-45.0 45.0)
           (-45.0 45.0)
  end
:hierarchy
  begin
    root lhipjoint rhipjoint lowerback
    lhipjoint lfemur
    lfemur ltibia
    ltibia lfoot
    lfoot ltoes
    rhipjoint rfemur
    rfemur rtibia
    rtibia rfoot
    rfoot rtoes
    lowerback upperback
    upperback thorax
    thorax lowerneck lclavicle rclavicle
    lowerneck upperneck
    upperneck head
    lclavicle lhumerus
    lhumerus lradius
    lradius lwrist
    lwrist lhand lthumb
    lhand lfingers
    rclavicle rhumerus
    rhumerus rradius
    rradius rwrist
    rwrist rhand rthumb
    rhand rfingers
  end

#!OML:ASF H:\Bending\Project 1\Capture day 1\Session 1\Subject.ASF
:FULLY-SPECIFIED
:DEGREES
80
root -11.3365 17.0925 -16.3063 -158.255 91.9497 -166.795
lowerback 23.2912 -0.015263 1.22294
upperback 1.673 0.583174 1.05599
thorax -11.1999 0.308266 0.275182
lowerneck -24.9626 -2.48081 -4.77625
upperneck 26.651 -1.99256 1.87565
head 13.1913 -1.02659 1.18616
rclavicle -1.43125e-014 -3.06128e-014
rhumerus -11.8881 3.04859 -85.8553
rradius 34.5622
rwrist 10.2669
rhand -18.9374 -19.37
rfingers 7.12502
rthumb 7.3656 -49.2218
lclavicle -1.43125e-014 -3.06128e-014
lhumerus -10.6625 -6.12133 96.1705
lradius 27.9697
lwrist 21.1611
lhand -29.8031 6.83129
lfingers 7.12502
lthumb -3.12726 36.7881
rfemur -32.1058 -17.0053 15.8588
rtibia 44.3638
rfoot -21.7271 -6.40295
rtoes -8.89587
lfemur -32.7667 11.864 -13.5942
ltibia 45.5396
lfoot -21.2886 -3.30627
ltoes -46.2367
81
root -11.3725 17.003 -16.3108 -159.8 92.1244 -168.721
lowerback 24.1021 -0.00503106 1.33536
upperback 1.79465 0.644314 0.979275
thorax -11.5014 0.332187 0.101497
lowerneck -25.0319 -2.45092 -4.72954
upperneck 26.0189 -1.98628 1.88215
head 12.9447 -1.02135 1.17545
rclavicle -8.54774e-015 -3.69739e-014
rhumerus -10.3796 3.08775 -86.256
rradius 34.1693
rwrist 10.9121
rhand -18.6373 -19.3867
rfingers 7.12502
rthumb 7.65522 -49.2282
lclavicle -8.54774e-015 -3.69739e-014
lhumerus -9.57219 -6.37253 96.2529
lradius 27.8633
lwrist 21.5186
lhand -29.8889 6.97815
lfingers 7.12502
lthumb -3.21018 36.9337
rfemur -33.8236 -17.3637 16.0688
rtibia 46.2517
rfoot -22.2628 -5.96703
rtoes -9.67427
lfemur -34.3519 12.5486 -13.6998
ltibia 47.4365
lfoot -21.6919 -3.57498
ltoes -46.7926
82
root -11.4056 16.9068 -16.3154 -162.8 92.2866 -172.113
lowerback 24.8596 0.00922884 1.50604
upperback 1.93274 0.729489 0.917686
thorax -11.7513 0.364761 -0.0988576
lowerneck -25.1322 -2.43427 -4.6407
upperneck 25.4094 -2.00868 1.87664
head 12.7168 -1.02581 1.14829
rclavicle -1.19271e-015 1.07344e-014
rhumerus -8.80494 3.05814 -86.6352
rradius 33.6479
rwrist 11.471
rhand -18.1856 -19.2485
rfingers 7.12502
rthumb 8.09121 -49.0736
lclavicle -1.19271e-015 1.07344e-014
lhumerus -8.45048 -6.70543 96.2889
lradius 27.7736
lwrist 21.9743
lhand -30.0393 7.2533
lfingers 7.12502
lthumb -3.35542 37.2066
rfemur -35.5708 -17.7268 16.3683
rtibia 48.1674
rfoot -22.8024 -5.50762
rtoes -10.3843
lfemur -35.9941 13.2258 -13.7312
ltibia 49.4063
lfoot -22.0661 -3.96812
ltoes -46.9765
83
root -11.4362 16.8021 -16.3201 -166.526 92.4501 -176.219
lowerback 25.5914 0.0157757 1.68202
upperback 2.09024 0.811553 0.877981
thorax -11.9619 0.39664 -0.278684
lowerneck -25.2485 -2.41524 -4.53407
upperneck 24.8095 -2.03889 1.89221
head 12.4986 -1.02897 1.12541
rclavicle 6.75868e-015 1.90833e-014
rhumerus -7.19733 3.09001 -87.0025
rradius 33.0579
rwrist 11.7848
rhand -17.7041 -19.0667
rfingers 7.12502
rthumb 8.55587 -48.8734
lclavicle 6.75868e-015 1.90833e-014
lhumerus -7.29489 -7.06739 96.2612
lradius 27.7051
lwrist 22.4695
lhand -30.2743 7.64299
lfingers 7.12502
lthumb -3.58236 37.5926
rfemur -37.2884 -18.1061 16.7277
rtibia 50.0183
rfoot -23.2728 -5.02909
rtoes -10.8349
lfemur -37.6197 13.9112 -13.7107
ltibia 51.3319
lfoot -22.3339 -4.49005
ltoes -46.7626
84
root -11.4646 16.6883 -16.325 -169.954 92.6202 -179.974
lowerback 26.3516 0.00132172 1.79833
upperback 2.26688 0.85653 0.859648
thorax -12.1639 0.415886 -0.388862
lowerneck -25.3613 -2.3763 -4.43793
upperneck 24.2081 -2.04942 1.95508
head 12.2813 -1.01797 1.12627
rclavicle 1.78906e-015 -3.18055e-015
rhumerus -5.58036 3.25277 -87.369
rradius 32.4336
rwrist 11.8421
rhand -17.3536 -18.9694
rfingers 7.12502
rthumb 8.89416 -48.7619
lclavicle 1.78906e-015 -3.18055e-015
lhumerus -6.10057 -7.37344 96.1597
lradius 27.6373
lwrist 22.8932
lhand -30.6066 8.09367
lfingers 7.12502
lthumb -3.90324 38.0377
rfemur -38.9993 -18.5134 17.0899
rtibia 51.9465
rfoot -23.7356 -4.54892
rtoes -10.9443
lfemur -39.2274 14.5939 -13.6755
ltibia 53.3222
lfoot -22.5692 -5.15189
ltoes -46.1632
85
root -11.492 16.6065 -16.329 -172.197 92.7912 -182.452
lowerback 27.1994 -0.0410746 1.80422
upperback 2.45791 0.840305 0.853639
thorax -12.3951 0.414052 -0.400688
lowerneck -25.4536 -2.30738 -4.37468
upperneck 23.6034 -2.02008 2.07486
head 12.0607 -0.984561 1.1614
rclavicle 5.96354e-015 1.07344e-014
rhumerus -3.96838 3.54661 -87.7416
rradius 31.787
rwrist 11.7701
rhand -17.2675 -19.0469
rfingers 7.12502
rthumb 8.97727 -48.8358
lclavicle 5.96354e-015 1.07344e-014
lhumerus -4.86208 -7.54576 95.9903
lradius 27.5364
lwrist 23.1357
lhand -31.031 8.5325
lfingers 7.12502
lthumb -4.31311 38.4686
rfemur -40.4946 -18.9401 17.4128
rtibia 53.786
rfoot -24.1933 -4.09988
rtoes -10.7487
lfemur -40.6024 15.2358 -13.6845
ltibia 55.2005
lfoot -22.8011 -5.90568
ltoes -45.2546
86
root -11.5173 16.4764 -16.3339 -172.844 92.9539 -183.228
lowerback 28.1699 -0.107282 1.68639
upperback 2.65424 0.760883 0.845596
thorax -12.6831 0.390757 -0.320095
lowerneck -25.5174 -2.21267 -4.35539
upperneck 23.003 -1.94955 2.24286
head 11.8381 -0.930127 1.22897
rclavicle 5.36719e-015 -8.34896e-015
rhumerus -2.37063 3.92958 -88.1136
rradius 31.1235
rwrist 11.7492
rhand -17.4873 -19.3269
rfingers 7.12502
rthumb 8.76511 -49.1249
lclavicle 5.36719e-015 -8.34896e-015
lhumerus -3.57591 -7.55514 95.7755
lradius 27.3771
lwrist 23.1493
lhand -31.5221 8.89747
lfingers 7.12502
lthumb -4.78729 38.8234
rfemur -42.0761 -19.4253 17.6117
rtibia 55.8568
rfoot -24.6449 -3.63457
rtoes -10.3481
lfemur -42.0174 15.8593 -13.7266
ltibia 57.2483
lfoot -23.0295 -6.7441
ltoes -44.1819
87
root -11.5414 16.3395 -16.3387 -172.063 93.1023 -182.49
lowerback 29.2531 -0.18456 1.47997
upperback 2.84496 0.639634 0.822218
thorax -13.0321 0.35385 -0.188179
lowerneck -25.554 -2.11175 -4.38273
upperneck 22.4152 -1.85919 2.44281
head 11.6175 -0.866366 1.31907
rclavicle 1.13307e-014 1.31198e-014
rhumerus -0.793798 4.35051 -88.4598
rradius 30.455
rwrist 11.9069
rhand -17.9308 -19.7762
rfingers 7.12502
rthumb 8.33708 -49.5917
lclavicle 1.13307e-014 1.31198e-014
lhumerus -2.24125 -7.43388 95.547
lradius 27.1571
lwrist 22.9728
lhand -32.0386 9.16256
lfingers 7.12502
lthumb -5.28597 39.0766
rfemur -43.6023 -19.9609 17.7073
rtibia 57.9925
rfoot -25.1143 -3.14707
rtoes -9.83713
lfemur -43.3414 16.4627 -13.8309
ltibia 59.3102
lfoot -23.2808 -7.60776
ltoes -43.1262
88
root -11.5643 16.1964 -16.3434 -170.49 93.2307 -180.926
lowerback 30.4901 -0.262822 1.26649
upperback 2.59762 0.513939 0.780854
thorax -13.0907 0.312368 -0.0766009
lowerneck -25.5685 -2.0339 -4.45615
upperneck 21.8384 -1.78671 2.66325
head 11.4004 -0.811501 1.4205
rclavicle -3.97569e-015 -2.62396e-014
rhumerus 0.757648 4.76806 -88.7442
rradius 29.8044
rwrist 12.2463
rhand -18.4134 -20.3091
rfingers 7.12502
rthumb 7.87137 -50.1426
lclavicle -3.97569e-015 -2.62396e-014
lhumerus -0.86075 -7.25942 95.3336
lradius 26.9028
lwrist 22.719
lhand -32.5347 9.34547
lfingers 7.12502
lthumb -5.76497 39.247
rfemur -45.1574 -20.5624 17.7464
rtibia 60.2746
rfoot -25.6751 -2.60384
rtoes -9.26424
lfemur -44.669 17.0803 -13.9861
ltibia 61.4794
lfoot -23.6084 -8.49181
ltoes -42.2332
89
root -11.5859 16.0466 -16.3482 -168.986 93.3256 -179.445
lowerback 31.636 -0.334 1.12457
upperback 2.71598 0.410612 0.71937
thorax -13.4533 0.280441 -0.0299373
lowerneck -25.5625 -2.00805 -4.57918
upperneck 21.2543 -1.77212 2.90848
head 11.1818 -0.783284 1.52843
rclavicle 6.55989e-015 1.09332e-014
rhumerus 2.28193 5.14483 -88.9378
rradius 29.1954
rwrist 12.6568
rhand -18.7159 -20.7925
rfingers 7.12502
rthumb 7.57933 -50.6367
lclavicle 6.55989e-015 1.09332e-014
lhumerus 0.557871 -7.11352 95.1528
lradius 26.6592
lwrist 22.5243
lhand -32.9747 9.49628
lfingers 7.12502
lthumb -6.18978 39.3859
rfemur -46.7589 -21.2528 17.8035
rtibia 62.5969
rfoot -26.2718 -1.97959
rtoes -8.63182
lfemur -46.0474 17.7524 -14.1631
ltibia 63.6794
lfoot -23.9309 -9.3917
ltoes -41.5434
90
root -11.6061 15.8893 -16.3533 -168.355 93.3642 -178.876
lowerback 32.7265 -0.409235 1.13129
upperback 2.82715 0.350312 0.650644
thorax -13.7875 0.260352 -0.0873103
lowerneck -25.5294 -2.05205 -4.76022
upperneck 20.6329 -1.84143 3.19625
head 10.9512 -0.79203 1.64627
rclavicle 4.17448e-015 -2.98177e-015
rhumerus 3.77888 5.43099 -89.0396
rradius 28.635
rwrist 12.9982
rhand -18.6772 -21.0671
rfingers 7.12502
rthumb 7.61676 -50.9099
lclavicle 4.17448e-015 -2.98177e-015
lhumerus 2.00085 -7.03875 95.0095
lradius 26.4708
lwrist 22.4898
lhand -33.3465 9.67464
lfingers 7.12502
lthumb -6.54869 39.5534
rfemur -48.4268 -22.0576 17.9491
rtibia 64.946
rfoot -26.8884 -1.27868
rtoes -7.9438
lfemur -47.5272 18.5066 -14.3214
ltibia 65.9281
lfoot -24.2099 -10.344
ltoes -40.9625
